<svg width="0" height="0" class="hidden">
  <symbol xmlns="http://www.w3.org/2000/svg" viewBox="0 0 150 150" id="fat">
    <title>Slice</title>
    <g fill="none">
      <path d="M113.477 67.91c-3.45-5.85-6.256-11.968-8.247-18.314-4.66-14.848-16.434-25.39-30.226-25.39-13.792 0-25.567 10.542-30.226 25.39-1.991 6.346-4.797 12.465-8.247 18.313-4.742 8.04-7.5 17.655-7.5 27.988 0 28.23 20.582 51.115 45.973 51.115 25.39 0 45.974-22.885 45.974-51.115 0-10.332-2.759-19.948-7.501-27.988z" fill="#8CC63F"></path>
      <path d="M75.004 24.636c0-6.274 5.086-11.36 11.36-11.36 6.273 0 22.018 11.36 22.018 11.36s-15.745 11.36-22.018 11.36c-6.274 0-11.36-5.087-11.36-11.36z" fill="#39B54A"></path>
      <path d="M95.258 97.829c0 13.139-9.068 21.862-20.254 21.862-11.186 0-20.254-8.723-20.254-21.862 0-13.14 9.068-25.72 20.254-25.72 11.186 0 20.254 12.58 20.254 25.72z" fill="#C69C6D"></path>
      <g fill="#000">
        <path d="M116.05 66.391c-3.43-5.814-6.11-11.766-7.97-17.69-1.772-5.65-4.538-10.786-8.084-15.05 4.653-2.7 8.774-5.61 10.134-6.592a2.988 2.988 0 000-4.846c-2.76-1.992-16.876-11.925-23.766-11.925a14.267 14.267 0 00-8.372 2.706V2.988a2.988 2.988 0 00-5.976 0v18.384c-6.31.63-12.306 3.255-17.492 7.69-5.754 4.923-10.11 11.714-12.597 19.64-1.859 5.924-4.54 11.876-7.97 17.69-5.178 8.779-7.915 18.981-7.915 29.505C26.042 125.73 48.006 150 75.004 150c26.998 0 48.962-24.27 48.962-54.103 0-10.524-2.738-20.727-7.916-29.506zM86.364 16.264c3.03 0 10.69 4.336 16.763 8.372-6.07 4.036-13.729 8.371-16.763 8.371-3.578 0-6.637-2.256-7.833-5.42h6.434a2.988 2.988 0 000-5.975H78.56c1.215-3.126 4.254-5.348 7.804-5.348zm-11.36 127.76c-23.702 0-42.986-21.59-42.986-48.127 0-9.456 2.45-18.61 7.087-26.47 3.66-6.206 6.529-12.577 8.524-18.936 4.039-12.871 13.735-21.835 24.65-23.129 1.278 6.612 7.105 11.621 14.084 11.621 2.202 0 5.142-1.016 8.214-2.462 3.444 3.838 6.125 8.627 7.802 13.97 1.995 6.358 4.863 12.73 8.524 18.937 4.636 7.86 7.086 17.013 7.086 26.47 0 26.536-19.283 48.126-42.985 48.126z"></path>
        <path d="M75.004 69.121c-6.27 0-12.2 3.233-16.695 9.105-4.16 5.435-6.547 12.58-6.547 19.603 0 7.01 2.402 13.377 6.763 17.926 4.28 4.464 10.133 6.923 16.479 6.923s12.198-2.458 16.478-6.923c4.362-4.55 6.764-10.916 6.764-17.926 0-7.023-2.386-14.168-6.548-19.603-4.494-5.872-10.423-9.105-16.694-9.105zm0 47.581c-10.005 0-17.266-7.937-17.266-18.873 0-11.897 8.23-22.732 17.266-22.732 9.036 0 17.266 10.835 17.266 22.732 0 10.936-7.261 18.873-17.266 18.873zM96.99 71.308a2.988 2.988 0 00-.575 4.187c4.365 5.755 6.77 13.116 6.77 20.727a2.988 2.988 0 005.975 0c0-8.907-2.835-17.55-7.984-24.339a2.987 2.987 0 00-4.186-.575zm-13.344-5.379a26.169 26.169 0 015.716 2.88 2.985 2.985 0 004.144-.83 2.988 2.988 0 00-.83-4.142 32.146 32.146 0 00-7.024-3.537 2.988 2.988 0 10-2.006 5.629z"></path>
      </g>
    </g>
  </symbol>
  <symbol xmlns="http://www.w3.org/2000/svg" viewBox="0 0 1125.628 1125.628" id="calories">
    <path d="M562.812.002C252.476.002 0 252.479 0 562.814s252.476 562.812 562.812 562.812c310.34 0 562.817-252.476 562.817-562.812S873.152.002 562.812.002zM309.189 739.263l-68.974-101H222.48v101h-70v-357h70v203h15.889l57.901-93h77.963l-79.808 111.736 92.036 135.264h-77.272zm158.995-66.383c7.299 13.589 20.325 20.382 38.317 20.382 11.995 0 21.792-3.329 29.023-10.286 7.226-6.952 11.026-14.712 11.026-27.712h61.131l.69 1.237c.612 25.224-8.88 46.258-28.489 63.246-19.605 16.997-43.942 25.452-73.007 25.452-37.218 0-65.962-11.781-86.11-35.309-20.144-23.529-30.283-53.763-30.283-90.671v-6.925c0-36.753 10.102-66.968 30.169-90.652 20.071-23.68 48.745-35.524 85.958-35.524 30.76 0 55.57 8.766 74.412 26.297 18.833 17.531 27.954 41.73 27.342 70.334l-.453 2.516h-61.36c0-14-3.54-24.775-10.611-33.312-7.075-8.533-16.837-13.365-29.298-13.365-17.837 0-31.158 6.628-38.457 20.446-7.308 13.818-11.703 31.349-11.703 53.151v6.911c0 22.266 4.395 40.194 11.703 53.784zm324.958 66.383c-2.462-4-4.582-11.157-6.345-17.465-1.772-6.304-3.038-12.499-3.805-19.113-6.925 12.15-16.033 22.354-27.338 30.348-11.301 7.998-24.798 12.061-40.484 12.061-26.141 0-46.285-6.691-60.432-20.148-14.151-13.457-21.222-31.78-21.222-54.998 0-24.456 9.414-43.221 28.256-56.683 18.833-13.452 46.327-20.003 82.467-20.003h39.242v-20.18c0-11.995-3.974-21.3-10.282-27.914-6.303-6.609-16.019-9.917-28.32-9.917-10.922 0-19.545 2.65-25.465 7.957-5.92 5.303-8.982 12.648-8.982 22.026l-65.101-.228-.259-1.384c-1.073-21.066 8.063-39.251 27.44-54.553 19.377-15.302 44.822-22.953 76.349-22.953 29.832 0 54.075 7.578 72.684 22.72 18.605 15.151 27.938 36.716 27.938 64.703v103.113c0 11.689.854 22.156 2.622 32.461 1.768 10.3 4.55 21.149 8.396 30.149h-67.359zm109.339 0v-357h70v357h-70z"></path>
    <path d="M711.712 640.846c-7.382 7.153-11.072 16.229-11.072 26.379 0 8.304 2.768 15.211 8.304 20.285 5.536 5.075 13.069 7.717 22.606 7.717 11.84 0 23.195-2.865 32.422-8.707 9.227-5.847 14.509-12.558 19.509-20.246v-37.012h-39.242c-14.306.001-25.146 4.436-32.527 11.584z"></path>
  </symbol>
  <symbol xmlns="http://www.w3.org/2000/svg" viewBox="0 0 512 512" id="carbs">
    <path d="M429.559 130.169v26.034h-22.563c-13.885 0-26.902-7.81-31.241-20.827 0-.868-.868-2.603-.868-3.471l-6.075-27.77 27.77 6.075c12.15 1.736 30.374 7.81 32.977 19.959m0 86.78v26.034h-22.563c-13.885 0-26.902-7.81-31.241-20.827 0-.868-.868-2.603-.868-3.471l-6.075-27.77 27.77 6.075c12.15 1.735 30.374 7.81 32.977 19.959m0 86.78v26.034h-22.563c-13.885 0-26.902-7.81-31.241-20.827 0-.868-.868-2.603-.868-3.471l-6.075-27.769 27.77 6.075c12.15 1.734 30.374 7.809 32.977 19.958M256 72.027v23.431l-21.695-3.471c-20.827-2.603-41.654-23.431-44.258-44.258l-3.471-21.695 23.431 1.736c20.827 2.603 43.39 23.43 45.993 44.257m0 95.458v23.431l-21.695-3.471c-20.827-2.603-41.654-23.431-44.258-44.258l-3.471-21.695 23.431 1.736c20.827 2.603 43.39 23.43 45.993 44.257m0 95.457v23.431l-21.695-3.471c-20.827-2.603-41.654-23.431-44.258-44.258l-3.471-21.695 23.431 1.736c20.827 2.603 43.39 23.43 45.993 44.257m0-190.915v23.431l21.695-3.471c20.827-2.603 41.654-23.431 44.258-44.258l3.471-21.695-23.431 1.736C281.166 30.373 258.603 51.2 256 72.027" fill="#ffdd09"></path>
    <path d="M308.068 26.902l-3.471 20.827c-2.603 20.827-23.431 41.654-44.258 44.258l-4.339.867v2.603l21.695-3.471c20.827-2.603 41.654-23.431 44.258-44.258l3.471-21.695-17.356.869z" fill="#fd9808"></path>
    <path d="M256 167.485v23.431l21.695-3.471c20.827-2.603 41.654-23.431 44.258-44.258l3.471-21.695-23.431 1.736c-20.827 2.603-43.39 23.43-45.993 44.257" fill="#ffdd09"></path>
    <path d="M308.068 122.359l-3.471 20.827c-2.603 20.827-23.431 41.654-44.258 44.258l-4.339.868v2.603l21.695-3.471c20.827-2.603 41.654-23.431 44.258-44.258l3.471-21.695-17.356.868z" fill="#fd9808"></path>
    <path d="M256 262.942v23.431l21.695-3.471c20.827-2.603 41.654-23.431 44.258-44.258l3.471-21.695-23.431 1.736c-20.827 2.603-43.39 23.43-45.993 44.257" fill="#ffdd09"></path>
    <path d="M308.068 217.817l-3.471 20.827c-2.603 20.827-23.431 41.654-44.258 44.258l-4.339.868v2.603l21.695-3.471c20.827-2.603 41.654-23.431 44.258-44.258l3.471-21.695-17.356.868z" fill="#fd9808"></path>
    <path d="M429.559 130.169v26.034h22.563c13.885 0 26.902-7.81 31.241-20.827 0-.868.868-2.603.868-3.471l6.075-27.77-27.77 6.075c-12.15 1.736-30.373 7.81-32.977 19.959" fill="#ffdd09"></path>
    <path d="M472.081 107.607l-5.207 23.431c0 .868-.868 2.603-.868 3.471-4.339 13.017-17.356 20.827-31.241 20.827h17.356c13.885 0 26.902-7.81 31.241-20.827 0-.868.868-2.603.868-3.471l6.075-26.902-18.224 3.471z" fill="#fd9808"></path>
    <path d="M429.559 216.949v26.034h22.563c13.885 0 26.902-7.81 31.241-20.827 0-.868.868-2.603.868-3.471l6.075-27.77-27.77 6.075c-12.15 1.735-30.373 7.81-32.977 19.959" fill="#ffdd09"></path>
    <path d="M472.081 194.386l-5.207 23.431c0 .868-.868 2.603-.868 3.471-4.339 13.017-17.356 20.827-31.241 20.827h17.356c13.885 0 26.902-7.81 31.241-20.827 0-.868.868-2.603.868-3.471l6.075-26.902-18.224 3.471z" fill="#fd9808"></path>
    <path d="M429.559 303.729v26.034h22.563c13.885 0 26.902-7.81 31.241-20.827 0-.868.868-2.603.868-3.471l6.075-27.769-27.77 6.075c-12.15 1.734-30.373 7.809-32.977 19.958" fill="#ffdd09"></path>
    <path d="M472.081 281.166l-5.207 23.43c0 .868-.868 2.603-.868 3.471-4.339 13.017-17.356 20.827-31.241 20.827h17.356c13.885 0 26.902-7.81 31.241-20.827 0-.868.868-2.603.868-3.471l6.075-26.902-18.224 3.472z" fill="#fd9808"></path>
    <path d="M82.441 130.169v26.034h22.563c13.885 0 26.902-7.81 31.241-20.827 0-.868.868-2.603.868-3.471l6.075-27.77-27.769 6.075c-12.151 1.736-30.375 7.81-32.978 19.959" fill="#ffdd09"></path>
    <path d="M124.963 107.607l-5.207 23.431c0 .868-.868 2.603-.868 3.471-4.339 13.017-17.356 20.827-31.241 20.827h17.356c13.885 0 26.902-7.81 31.241-20.827 0-.868.868-2.603.868-3.471l6.075-26.902-18.224 3.471z" fill="#fd9808"></path>
    <path d="M82.441 216.949v26.034h22.563c13.885 0 26.902-7.81 31.241-20.827 0-.868.868-2.603.868-3.471l6.075-27.77-27.769 6.075c-12.151 1.735-30.375 7.81-32.978 19.959" fill="#ffdd09"></path>
    <path d="M124.963 194.386l-5.207 23.431c0 .868-.868 2.603-.868 3.471-4.339 13.017-17.356 20.827-31.241 20.827h17.356c13.885 0 26.902-7.81 31.241-20.827 0-.868.868-2.603.868-3.471l6.075-26.902-18.224 3.471z" fill="#fd9808"></path>
    <path d="M82.441 303.729v26.034h22.563c13.885 0 26.902-7.81 31.241-20.827 0-.868.868-2.603.868-3.471l6.075-27.769-27.769 6.075c-12.151 1.734-30.375 7.809-32.978 19.958" fill="#ffdd09"></path>
    <path d="M124.963 281.166l-5.207 23.43c0 .868-.868 2.603-.868 3.471-4.339 13.017-17.356 20.827-31.241 20.827h17.356c13.885 0 26.902-7.81 31.241-20.827 0-.868.868-2.603.868-3.471l6.075-26.902-18.224 3.472z" fill="#fd9808"></path>
    <path d="M82.441 130.169v26.034H59.878c-13.885 0-26.902-7.81-31.241-20.827 0-.868-.868-2.603-.868-3.471l-6.075-27.77 27.769 6.075c12.151 1.736 30.374 7.81 32.978 19.959" fill="#ffdd09"></path>
    <path d="M39.919 107.607l5.207 23.431c0 .868.868 2.603.868 3.471 4.339 13.017 17.356 20.827 31.241 20.827H59.878c-13.885 0-26.902-7.81-31.241-20.827 0-.868-.868-2.603-.868-3.471l-6.075-26.902 18.225 3.471z" fill="#fff"></path>
    <path d="M82.441 216.949v26.034H59.878c-13.885 0-26.902-7.81-31.241-20.827 0-.868-.868-2.603-.868-3.471l-6.075-27.77 27.769 6.075c12.151 1.735 30.374 7.81 32.978 19.959" fill="#ffdd09"></path>
    <path d="M39.919 194.386l5.207 23.431c0 .868.868 2.603.868 3.471 4.339 13.017 17.356 20.827 31.241 20.827H59.878c-13.885 0-26.902-7.81-31.241-20.827 0-.868-.868-2.603-.868-3.471l-6.075-26.902 18.225 3.471z" fill="#fff"></path>
    <path d="M82.441 303.729v26.034H59.878c-13.885 0-26.902-7.81-31.241-20.827 0-.868-.868-2.603-.868-3.471l-6.075-27.769 27.769 6.075c12.151 1.734 30.374 7.809 32.978 19.958" fill="#ffdd09"></path>
    <path d="M39.919 281.166l5.207 23.43c0 .868.868 2.603.868 3.471 4.339 13.017 17.356 20.827 31.241 20.827H59.878c-13.885 0-26.902-7.81-31.241-20.827 0-.868-.868-2.603-.868-3.471l-6.075-26.902 18.225 3.472z" fill="#fff"></path>
    <path d="M82.441 164.881H59.878c-18.224 0-33.844-11.281-39.051-26.902-.868-1.736-.868-2.603-.868-4.339l-6.942-27.769c-.868-2.603 0-6.075 2.603-7.81 2.603-1.736 5.207-2.603 7.81-2.603l27.769 6.075c16.488 3.471 36.447 10.414 39.919 26.902v27.77c.001 5.205-3.471 8.676-8.677 8.676zm-49.465-49.464l3.471 13.885c0 .868 0 1.736.868 2.603 2.603 8.678 12.149 15.62 22.563 15.62h13.885v-16.488c-1.736-5.207-12.149-10.414-26.034-13.017l-14.753-2.603z"></path>
    <path d="M21.695 112.814c-2.603 0-4.339-.868-6.075-2.603l-8.678-8.678c-3.471-3.471-3.471-8.678 0-12.149 3.471-3.471 8.678-3.471 12.149 0l8.678 8.678c3.471 3.471 3.471 8.678 0 12.149-1.735 1.735-3.471 2.603-6.074 2.603zm83.308 52.067H82.441c-5.207 0-8.678-3.471-8.678-8.678v-27.77c3.471-16.488 23.431-23.431 39.919-26.902l27.769-6.075c2.603-.868 6.075 0 7.81 2.603 1.736 1.736 2.603 5.207 2.603 7.81l-6.075 27.769c0 1.736-.868 2.603-.868 4.339-6.074 15.623-21.694 26.904-39.918 26.904zm-13.884-17.356h13.885c10.414 0 19.959-6.075 22.563-15.62 0-.868.868-1.736.868-2.603l3.471-14.753-14.753 3.471c-13.885 2.603-24.298 7.81-26.034 13.017v16.488z"></path>
    <path d="M143.186 112.814c-2.603 0-4.339-.868-6.075-2.603-3.471-3.471-3.471-8.678 0-12.149l8.678-8.678c3.471-3.471 8.678-3.471 12.149 0 3.471 3.471 3.471 8.678 0 12.149l-8.678 8.678c-1.735 1.735-3.47 2.603-6.074 2.603zM82.441 251.661H59.878c-18.224 0-33.844-11.281-39.051-26.902-.868-1.736-.868-2.603-.868-4.339l-6.942-27.769c-.868-2.603 0-6.075 2.603-7.81 2.603-1.736 5.207-2.603 7.81-2.603l27.769 6.075c16.488 3.471 36.447 10.414 39.919 26.902v27.77c.001 5.205-3.471 8.676-8.677 8.676zm-49.465-49.464l3.471 13.885c0 .868 0 1.736.868 2.603 2.603 8.678 12.149 15.62 22.563 15.62h13.885v-16.488c-1.736-5.207-12.149-10.414-26.034-13.017l-14.753-2.603z"></path>
    <path d="M21.695 199.593c-2.603 0-4.339-.868-6.075-2.603l-8.678-8.678c-3.471-3.471-3.471-8.678 0-12.149 3.471-3.471 8.678-3.471 12.149 0l8.678 8.678c3.471 3.471 3.471 8.678 0 12.149-1.735 1.735-3.471 2.603-6.074 2.603zm83.308 52.068H82.441c-5.207 0-8.678-3.471-8.678-8.678v-27.77c3.471-16.488 23.431-23.431 39.919-26.902l27.769-6.075c2.603-.868 6.075 0 7.81 2.603 1.736 1.736 2.603 5.207 2.603 7.81l-6.075 27.77c0 1.736-.868 2.603-.868 4.339-6.074 15.622-21.694 26.903-39.918 26.903zm-13.884-17.356h13.885c10.414 0 19.959-6.075 22.563-15.62 0-.868.868-1.736.868-2.603l3.471-14.753-14.753 3.471c-13.885 2.603-24.298 7.81-26.034 13.017v16.488z"></path>
    <path d="M143.186 199.593c-2.603 0-4.339-.868-6.075-2.603-3.471-3.471-3.471-8.678 0-12.149l8.678-8.678c3.471-3.471 8.678-3.471 12.149 0 3.471 3.471 3.471 8.678 0 12.149l-8.678 8.678c-1.735 1.735-3.47 2.603-6.074 2.603zM82.441 338.441H59.878c-18.224 0-33.844-11.281-39.051-26.902-.868-1.736-.868-2.603-.868-4.339l-6.942-27.77c-.868-2.603 0-6.075 2.603-7.81 2.603-1.736 5.207-2.603 7.81-2.603l27.769 6.075c16.488 3.471 36.447 10.414 39.919 26.902v27.77c.001 5.205-3.471 8.677-8.677 8.677zm-49.465-49.465l3.471 13.885c0 .868 0 1.736.868 2.603 2.603 8.678 12.149 15.62 22.563 15.62h13.885v-16.488c-1.736-5.207-12.149-10.414-26.034-13.017l-14.753-2.603z"></path>
    <path d="M21.695 286.373c-2.603 0-4.339-.868-6.075-2.603l-8.678-8.678c-3.471-3.471-3.471-8.678 0-12.149s8.678-3.471 12.149 0l8.678 8.678c3.471 3.471 3.471 8.678 0 12.149-1.735 1.735-3.471 2.603-6.074 2.603zm83.308 52.068H82.441c-5.207 0-8.678-3.471-8.678-8.678v-27.77c3.471-16.488 23.431-23.431 39.919-26.902l27.769-6.075c2.603-.868 6.075 0 7.81 2.603 1.736 1.736 2.603 5.207 2.603 7.81l-6.075 27.77c0 1.736-.868 2.603-.868 4.339-6.074 15.621-21.694 26.903-39.918 26.903zm-13.884-17.356h13.885c10.414 0 19.959-6.075 22.563-15.62 0-.868.868-1.736.868-2.603l3.471-14.753-14.753 3.471c-13.885 2.603-24.298 7.81-26.034 13.017v16.488z"></path>
    <path d="M143.186 286.373c-2.603 0-4.339-.868-6.075-2.603-3.471-3.471-3.471-8.678 0-12.149l8.678-8.678c3.471-3.471 8.678-3.471 12.149 0 3.471 3.471 3.471 8.678 0 12.149l-8.678 8.678c-1.735 1.735-3.47 2.603-6.074 2.603zM82.441 512c-5.207 0-8.678-3.471-8.678-8.678V69.424c0-5.207 3.471-8.678 8.678-8.678 5.207 0 8.678 3.471 8.678 8.678v433.898c0 5.207-3.472 8.678-8.678 8.678zm347.118-347.119h-22.563c-18.224 0-33.844-11.281-39.051-26.902-.868-1.736-.868-2.603-.868-4.339l-6.942-27.769c-.868-2.603 0-6.075 2.603-7.81 2.603-1.736 5.207-2.603 7.81-2.603l27.77 6.075c16.488 3.471 36.447 10.414 39.919 26.902v27.77c0 5.205-3.471 8.676-8.678 8.676zm-49.464-49.464l3.471 13.885c0 .868 0 1.736.868 2.603 2.603 8.678 12.149 15.62 22.563 15.62h13.885v-16.488c-1.736-5.207-12.149-10.414-26.034-13.017l-14.753-2.603z"></path>
    <path d="M368.814 112.814c-2.603 0-4.339-.868-6.075-2.603l-8.678-8.678c-3.471-3.471-3.471-8.678 0-12.149 3.471-3.471 8.678-3.471 12.149 0l8.678 8.678c3.471 3.471 3.471 8.678 0 12.149-1.735 1.735-3.471 2.603-6.074 2.603zm83.308 52.067h-22.563c-5.207 0-8.678-3.471-8.678-8.678v-27.77c3.471-16.488 23.431-23.431 39.919-26.902l27.77-6.075c2.603-.868 6.075 0 7.81 2.603 1.736 1.736 2.603 5.207 2.603 7.81l-6.075 27.769c0 1.736-.868 2.603-.868 4.339-6.074 15.623-21.694 26.904-39.918 26.904zm-13.885-17.356h13.885c10.414 0 19.959-6.075 22.563-15.62 0-.868.868-1.736.868-2.603l3.471-14.753-14.753 3.471c-13.885 2.603-24.298 7.81-26.034 13.017v16.488z"></path>
    <path d="M490.305 112.814c-2.603 0-4.339-.868-6.075-2.603-3.471-3.471-3.471-8.678 0-12.149l8.678-8.678c3.471-3.471 8.678-3.471 12.149 0 3.471 3.471 3.471 8.678 0 12.149l-8.678 8.678c-1.735 1.735-3.471 2.603-6.074 2.603zm-60.746 138.847h-22.563c-18.224 0-33.844-11.281-39.051-26.902-.868-1.736-.868-2.603-.868-4.339l-6.942-27.769c-.868-2.603 0-6.075 2.603-7.81 2.603-1.736 5.207-2.603 7.81-2.603l27.77 6.075c16.488 3.471 36.447 10.414 39.919 26.902v27.77c0 5.205-3.471 8.676-8.678 8.676zm-49.464-49.464l3.471 13.885c0 .868 0 1.736.868 2.603 2.603 8.678 12.149 15.62 22.563 15.62h13.885v-16.488c-1.736-5.207-12.149-10.414-26.034-13.017l-14.753-2.603z"></path>
    <path d="M368.814 199.593c-2.603 0-4.339-.868-6.075-2.603l-8.678-8.678c-3.471-3.471-3.471-8.678 0-12.149 3.471-3.471 8.678-3.471 12.149 0l8.678 8.678c3.471 3.471 3.471 8.678 0 12.149-1.735 1.735-3.471 2.603-6.074 2.603zm83.308 52.068h-22.563c-5.207 0-8.678-3.471-8.678-8.678v-27.77c3.471-16.488 23.431-23.431 39.919-26.902l27.77-6.075c2.603-.868 6.075 0 7.81 2.603 1.736 1.736 2.603 5.207 2.603 7.81l-6.075 27.77c0 1.736-.868 2.603-.868 4.339-6.074 15.622-21.694 26.903-39.918 26.903zm-13.885-17.356h13.885c10.414 0 19.959-6.075 22.563-15.62 0-.868.868-1.736.868-2.603l3.471-14.753-14.753 3.471c-13.885 2.603-24.298 7.81-26.034 13.017v16.488z"></path>
    <path d="M490.305 199.593c-2.603 0-4.339-.868-6.075-2.603-3.471-3.471-3.471-8.678 0-12.149l8.678-8.678c3.471-3.471 8.678-3.471 12.149 0 3.471 3.471 3.471 8.678 0 12.149l-8.678 8.678c-1.735 1.735-3.471 2.603-6.074 2.603zm-60.746 138.848h-22.563c-18.224 0-33.844-11.281-39.051-26.902-.868-1.736-.868-2.603-.868-4.339l-6.942-27.77c-.868-2.603 0-6.075 2.603-7.81 2.603-1.736 5.207-2.603 7.81-2.603l27.77 6.075c16.488 3.471 36.447 10.414 39.919 26.902v27.77c0 5.205-3.471 8.677-8.678 8.677zm-49.464-49.465l3.471 13.885c0 .868 0 1.736.868 2.603 2.603 8.678 12.149 15.62 22.563 15.62h13.885v-16.488c-1.736-5.207-12.149-10.414-26.034-13.017l-14.753-2.603z"></path>
    <path d="M368.814 286.373c-2.603 0-4.339-.868-6.075-2.603l-8.678-8.678c-3.471-3.471-3.471-8.678 0-12.149s8.678-3.471 12.149 0l8.678 8.678c3.471 3.471 3.471 8.678 0 12.149-1.735 1.735-3.471 2.603-6.074 2.603zm83.308 52.068h-22.563c-5.207 0-8.678-3.471-8.678-8.678v-27.77c3.471-16.488 23.431-23.431 39.919-26.902l27.77-6.075c2.603-.868 6.075 0 7.81 2.603 1.736 2.603 2.603 5.207 2.603 7.81l-6.075 27.77c0 1.736-.868 2.603-.868 4.339-6.074 15.621-21.694 26.903-39.918 26.903zm-13.885-17.356h13.885c10.414 0 19.959-6.075 22.563-15.62 0-.868.868-1.736.868-2.603l3.471-14.753-14.753 3.471c-13.885 2.603-24.298 7.81-26.034 13.017v16.488z"></path>
    <path d="M490.305 286.373c-2.603 0-4.339-.868-6.075-2.603-3.471-3.471-3.471-8.678 0-12.149l8.678-8.678c3.471-3.471 8.678-3.471 12.149 0 3.471 3.471 3.471 8.678 0 12.149l-8.678 8.678c-1.735 1.735-3.471 2.603-6.074 2.603zM429.559 512c-5.207 0-8.678-3.471-8.678-8.678V69.424c0-5.207 3.471-8.678 8.678-8.678 5.207 0 8.678 3.471 8.678 8.678v433.898c0 5.207-3.471 8.678-8.678 8.678zM256 104.136h-1.736l-21.695-3.471c-24.298-3.471-48.597-26.902-52.068-52.068l-2.603-20.827c0-2.603 0-5.207 1.736-6.942 2.603-2.603 5.207-3.471 7.81-3.471l23.431 1.736c26.034 3.471 50.332 27.769 53.803 52.068V95.46c0 2.603-.868 5.207-2.603 6.942-1.736.866-4.339 1.734-6.075 1.734zM196.99 35.58l1.736 11.281c2.603 17.356 19.959 34.712 37.315 37.315l11.281.868V72.895c-2.603-16.488-20.827-33.844-38.183-36.447l-12.149-.868z"></path>
    <path d="M256 104.136c-1.736 0-4.339-.868-6.075-1.736-1.736-1.736-2.603-4.339-2.603-6.942V71.159c3.471-24.298 28.637-48.597 52.936-52.068l24.298-1.736c2.603 0 5.207.868 6.942 2.603 1.736 1.736 2.603 5.207 2.603 7.81l-3.471 21.695c-3.471 24.298-26.902 48.597-52.068 52.068l-20.827 2.603c-.867.002-.867.002-1.735.002zm8.678-31.241v13.017l11.281-1.736c17.356-2.603 34.712-19.959 37.315-37.315l1.736-11.281-13.017.868c-16.488 1.735-34.712 19.959-37.315 36.447z"></path>
    <path d="M256 512c-5.207 0-8.678-3.471-8.678-8.678V8.678C247.322 3.471 250.793 0 256 0c5.207 0 8.678 3.471 8.678 8.678v494.644c0 5.207-3.471 8.678-8.678 8.678zM186.576 34.712c-2.603 0-4.339-.868-6.075-2.603l-8.678-8.678c-3.471-3.471-3.471-8.678 0-12.149 3.471-3.471 8.678-3.471 12.149 0l8.678 8.678c3.471 3.471 3.471 8.678 0 12.149-1.735 1.735-3.47 2.603-6.074 2.603zm138.848 0c-2.603 0-4.339-.868-6.075-2.603-3.471-3.471-3.471-8.678 0-12.149l8.678-8.678c3.471-3.471 8.678-3.471 12.149 0s3.471 8.678 0 12.149l-8.678 8.678c-1.735 1.735-3.471 2.603-6.074 2.603z"></path>
    <path d="M256 199.593h-1.736l-21.695-3.471c-24.298-3.471-48.597-26.902-52.068-52.068l-2.603-20.827c0-2.603 0-5.207 1.736-6.942 1.736-1.736 4.339-2.603 6.942-2.603l23.431 1.736c26.034 3.471 50.332 27.769 53.803 52.068v23.431c0 2.603-.868 5.207-2.603 6.942-.868.866-3.471 1.734-5.207 1.734zm-59.01-68.556l1.736 11.281c2.603 17.356 19.959 34.712 37.315 37.315l11.281 1.736v-13.017c-2.603-16.488-20.827-33.844-38.183-36.447l-12.149-.868z"></path>
    <path d="M256 199.593c-1.736 0-4.339-.868-6.075-1.736-1.736-1.736-2.603-4.339-2.603-6.942v-24.299c3.471-24.298 28.637-48.597 52.936-52.068l24.298-1.736c2.603 0 5.207.868 6.942 2.603 1.736 1.736 2.603 4.339 1.736 6.942l-3.471 21.695c-3.471 24.298-26.902 48.597-52.068 52.068l-19.959 3.471-1.736.002zm8.678-31.24v13.017l11.281-1.736c17.356-2.603 34.712-19.959 37.315-37.315l1.736-11.281-13.017.868c-16.488 1.735-34.712 19.958-37.315 36.447zm-78.102-38.184c-2.603 0-4.339-.868-6.075-2.603l-8.678-8.678c-3.471-3.471-3.471-8.678 0-12.149 3.471-3.471 8.678-3.471 12.149 0l8.678 8.678c3.471 3.471 3.471 8.678 0 12.149-1.735 1.736-3.47 2.603-6.074 2.603z"></path>
    <path d="M325.424 130.169c-2.603 0-4.339-.868-6.075-2.603-3.471-3.471-3.471-8.678 0-12.149l8.678-8.678c3.471-3.471 8.678-3.471 12.149 0s3.471 8.678 0 12.149l-8.678 8.678c-1.735 1.736-3.471 2.603-6.074 2.603zM256 295.051h-1.736l-21.695-3.471c-24.298-3.471-48.597-26.902-52.068-52.068l-2.603-20.827c0-2.603 0-5.207 1.736-6.942 1.736-1.736 4.339-2.603 6.942-2.603l23.431 1.736c26.034 3.471 50.332 27.77 53.803 52.068v23.431c0 2.603-.868 5.207-2.603 6.942-.868.866-3.471 1.734-5.207 1.734zm-59.01-68.556l1.736 11.281c2.603 17.356 19.959 34.712 37.315 37.315l11.281 1.736V263.81c-2.603-16.488-20.827-33.844-38.183-36.447l-12.149-.868z"></path>
    <path d="M256 295.051c-1.736 0-4.339-.868-6.075-1.736-1.736-1.736-2.603-4.339-2.603-6.942v-24.299c3.471-24.298 28.637-48.597 52.936-52.068l24.298-1.736c2.603 0 5.207.868 6.942 2.603 1.736 1.736 2.603 4.339 1.736 6.942l-3.471 21.695c-3.471 24.298-26.902 48.597-52.068 52.068l-19.959 3.471-1.736.002zm8.678-31.241v13.017l11.281-1.736c17.356-2.603 34.712-19.959 37.315-37.315l1.736-11.281-13.017.868c-16.488 1.735-34.712 19.959-37.315 36.447zm-78.102-38.183c-2.603 0-4.339-.868-6.075-2.603l-8.678-8.678c-3.471-3.471-3.471-8.678 0-12.149 3.471-3.471 8.678-3.471 12.149 0l8.678 8.678c3.471 3.471 3.471 8.678 0 12.149-1.735 1.735-3.47 2.603-6.074 2.603z"></path>
    <path d="M325.424 225.627c-2.603 0-4.339-.868-6.075-2.603-3.471-3.471-3.471-8.678 0-12.149l8.678-8.678c3.471-3.471 8.678-3.471 12.149 0 3.471 3.471 3.471 8.678 0 12.149l-8.678 8.678c-1.735 1.735-3.471 2.603-6.074 2.603z"></path>
  </symbol>
  <symbol xmlns="http://www.w3.org/2000/svg" viewBox="0 0 58 58" id="protein">
    <path d="M42.766 48.504c1.862.267 3.869.145 5.907-.451 4.582-1.341 7.987-4.967 8.586-8.935.319-2.113-.12-4.069-1.105-5.717a3.471 3.471 0 01.136-3.799c1.086-1.558 1.71-3.388 1.71-5.355 0-4.29-3.006-8.176-7.423-9.993-2.072-.852-3.673-2.504-4.289-4.459-1.3-4.123-4.245-6.047-8.467-6.664-3.805-.556-7.251.7-9.067 3.07-1.065 1.39-3.31 1.979-5.61 1.418a19.001 19.001 0 00-4.344-.536c-6.395-.055-11.851 3.25-12.763 8.009-.312 1.628-.09 3.225.56 4.708 1.106 2.526.092 5.224-2.507 7.122C1.57 28.763 0 31.265 0 34.013c0 3.285 5.326 5.906 9.847 7.47 3.426 1.186 5.511 3.499 5.993 6.18l.02.107c.866 4.452 5.763 7.431 11.529 7.219 4.608-.169 8.618-2.157 11.054-4.862 1.065-1.182 2.787-1.843 4.323-1.623z" fill="#faf5e5"></path>
    <circle cx="36.5" cy="29.5" r="12.5" fill="#f8b600"></circle>
    <path d="M34 22.374a1.001 1.001 0 01-.294-1.956A9.504 9.504 0 0136.5 20a1 1 0 110 2c-.753 0-1.495.111-2.206.33-.098.03-.197.044-.294.044zM28 30.5a1 1 0 01-1-1 9.482 9.482 0 013.379-7.265 1 1 0 011.289 1.529A7.49 7.49 0 0029 29.5a1 1 0 01-1 1z" fill="#f4c45b"></path>
    <path d="M9.999 17a1 1 0 01-.836-1.547c1.279-1.96 2.998-3.429 5.107-4.368a1 1 0 01.812 1.828c-1.752.779-3.181 2.002-4.246 3.634a.994.994 0 01-.837.453zm11.002-5a.938.938 0 01-.139-.01c-.021-.002-.922-.119-2.211.005a1 1 0 11-.194-1.99c1.551-.15 2.636-.001 2.682.005a1 1 0 01-.138 1.99zm3.238 38.966c-3.095 0-5.8-2.218-6.334-5.312a.999.999 0 111.97-.34c.396 2.291 2.521 3.88 4.851 3.625l.149-.017a1 1 0 11.248 1.984l-.163.019a6.25 6.25 0 01-.721.041zM17.96 44a1 1 0 01-.854-.478c-.722-1.179-1.619-1.749-1.628-1.755a.997.997 0 01-.331-1.374.996.996 0 011.374-.331c.054.032 1.309.812 2.29 2.415A.999.999 0 0117.96 44z" fill="#fff"></path>
    <ellipse transform="rotate(-33.898 40.712 34.392)" cx="40.714" cy="34.392" rx="7.5" ry="4.5" fill="#f79b21"></ellipse>
  </symbol>
</svg>